
<svg width="48" height="48" viewBox="0 0 48 48" fill="none" xmlns="http://www.w3.org/2000/svg">
  <rect width="48" height="48" rx="8" fill="#FDE1D3"/>
  <path d="M14 16C14 14.8954 14.8954 14 16 14H32C33.1046 14 34 14.8954 34 16V32C34 33.1046 33.1046 34 32 34H16C14.8954 34 14 33.1046 14 32V16Z" fill="#FF7722"/>
  <path d="M23 22C23 20.8954 23.8954 20 25 20H32C33.1046 20 34 20.8954 34 22V26C34 27.1046 33.1046 28 32 28H25C23.8954 28 23 27.1046 23 26V22Z" fill="#2274A5"/>
  <path d="M14 28C14 26.8954 14.8954 26 16 26H20C21.1046 26 22 26.8954 22 28V32C22 33.1046 21.1046 34 20 34H16C14.8954 34 14 33.1046 14 32V28Z" fill="#227743"/>
  <path d="M20 18L22 20M26 24L28 26M23 19L27 23" stroke="#FFF" stroke-width="1.5" stroke-linecap="round"/>
</svg>
